<?xml version="1.0" encoding="iso-8859-1"?>
<!-- Generator: Adobe Illustrator 18.0.0, SVG Export Plug-In . SVG Version: 6.00 Build 0)  -->
<!DOCTYPE svg PUBLIC "-//W3C//DTD SVG 1.1//EN" "http://www.w3.org/Graphics/SVG/1.1/DTD/svg11.dtd">
<svg version="1.1" id="Capa_1" xmlns="http://www.w3.org/2000/svg" xmlns:xlink="http://www.w3.org/1999/xlink" x="0px" y="0px"
	 viewBox="0 0 457.199 457.199" style="enable-background:new 0 0 457.199 457.199;" xml:space="preserve">
<path d="M260.848,424.201v-95.995h-14.451c-1.907-63.426-3.816-129.667-5.723-192.05c5.603-3.097,9.892-8.279,11.814-14.503
	c3.386-2.413,8.094-4.804,17.138-5.95c7.658-0.969-7.104-12.618-20.176-15.219c-1.21-1.826-2.651-4.269-4.285-5.771
	c8.686-5.508,14.475-15.189,14.475-26.213c0-11.008-5.914-21.065-15.05-26.592c5.018-4.462,8.01-10.91,8.01-17.908
	c0-13.233-10.766-24-24-24c-13.234,0-24,10.767-24,24c0,6.999,2.992,13.446,8.01,17.908c-9.137,5.526-15.05,15.583-15.05,26.592
	c0,11.024,5.789,20.705,14.475,26.213c-1.634,1.501-3.075,3.945-4.285,5.771c-13.072,2.602-27.834,14.25-20.176,15.219
	c9.044,1.146,13.752,3.538,17.138,5.95c1.923,6.224,6.211,11.406,11.814,14.503c-1.907,62.383-3.815,128.624-5.723,192.05h-14.451
	v95.995h-15v32.998h15h64.496h15v-32.998H260.848z M212.6,24c0-8.822,7.178-16,16-16c8.822,0,16,7.178,16,16
	c0,6.539-3.92,12.356-9.988,14.821l-6.012,2.442l-6.012-2.442C216.52,36.356,212.6,30.539,212.6,24z M205.56,68.5
	c0-10.2,6.84-19.3,16.633-22.13l6.407-1.852l6.407,1.852C244.8,49.2,251.64,58.3,251.64,68.5c0,12.705-10.336,23.041-23.04,23.041
	C215.896,91.541,205.56,81.205,205.56,68.5z"/>
<g>
</g>
<g>
</g>
<g>
</g>
<g>
</g>
<g>
</g>
<g>
</g>
<g>
</g>
<g>
</g>
<g>
</g>
<g>
</g>
<g>
</g>
<g>
</g>
<g>
</g>
<g>
</g>
<g>
</g>
</svg>
